<svg width="14" height="24" viewBox="0 0 14 24" fill="none" xmlns="http://www.w3.org/2000/svg">
<path d="M13.1001 0.0049936L9.97238 0C6.45847 0 4.18763 2.31828 4.18763 5.90643V8.62969H1.04283C0.771084 8.62969 0.551025 8.84891 0.551025 9.11932V13.065C0.551025 13.3354 0.771335 13.5544 1.04283 13.5544H4.18763V23.5106C4.18763 23.781 4.40769 24 4.67944 24H8.78251C9.05425 24 9.27431 23.7808 9.27431 23.5106V13.5544H12.9513C13.2231 13.5544 13.4431 13.3354 13.4431 13.065L13.4446 9.11932C13.4446 8.98948 13.3927 8.86514 13.3006 8.77326C13.2085 8.68138 13.0831 8.62969 12.9526 8.62969H9.27431V6.32115C9.27431 5.21157 9.54004 4.64829 10.9926 4.64829L13.0996 4.64755C13.3711 4.64755 13.5912 4.42833 13.5912 4.15817V0.494367C13.5912 0.224462 13.3714 0.00549296 13.1001 0.0049936Z" fill="#000B33"/>
</svg>
