<svg width="25" height="24" viewBox="0 0 25 24" fill="none" xmlns="http://www.w3.org/2000/svg">
<path d="M16.5821 0H7.53731C3.37521 0 0 3.3585 0 7.5V16.5C0 20.6415 3.37521 24 7.53731 24H16.5821C20.7442 24 24.1194 20.6415 24.1194 16.5V7.5C24.1194 3.3585 20.7442 0 16.5821 0ZM21.8582 16.5C21.8582 19.395 19.4915 21.75 16.5821 21.75H7.53731C4.62791 21.75 2.26119 19.395 2.26119 16.5V7.5C2.26119 4.605 4.62791 2.25 7.53731 2.25H16.5821C19.4915 2.25 21.8582 4.605 21.8582 7.5V16.5Z" fill="#000B33"/>
<path d="M12.0719 6.01367C8.74192 6.01367 6.04205 8.70017 6.04205 12.0137C6.04205 15.3272 8.74192 18.0137 12.0719 18.0137C15.4019 18.0137 18.1017 15.3272 18.1017 12.0137C18.1017 8.70017 15.4019 6.01367 12.0719 6.01367ZM12.0719 15.7637C9.99462 15.7637 8.30325 14.0807 8.30325 12.0137C8.30325 9.94517 9.99462 8.26367 12.0719 8.26367C14.1492 8.26367 15.8406 9.94517 15.8406 12.0137C15.8406 14.0807 14.1492 15.7637 12.0719 15.7637Z" fill="#000B33"/>
<path d="M18.5252 6.36845C18.9701 6.36845 19.3308 6.00959 19.3308 5.56691C19.3308 5.12424 18.9701 4.76538 18.5252 4.76538C18.0804 4.76538 17.7197 5.12424 17.7197 5.56691C17.7197 6.00959 18.0804 6.36845 18.5252 6.36845Z" fill="#000B33"/>
</svg>
