<svg width="25" height="24" viewBox="0 0 25 24" fill="none" xmlns="http://www.w3.org/2000/svg">
<path d="M24.819 23.9723V23.9713H24.825V15.1696C24.825 10.8638 23.8935 7.54688 18.8346 7.54688C16.4027 7.54688 14.7707 8.87483 14.1044 10.1338H14.034V7.94886H9.23749V23.9713H14.232V16.0376C14.232 13.9486 14.63 11.9287 17.2297 11.9287C19.7913 11.9287 19.8295 14.3126 19.8295 16.1716V23.9723H24.819Z" fill="#000B33"/>
<path d="M1.10413 7.97754H6.10469V23.9999H1.10413V7.97754Z" fill="#000B33"/>
<path d="M3.61754 0C2.01869 0 0.721313 1.29095 0.721313 2.88189C0.721313 4.47283 2.01869 5.79079 3.61754 5.79079C5.21639 5.79079 6.51376 4.47283 6.51376 2.88189C6.51276 1.29095 5.21538 0 3.61754 0V0Z" fill="#000B33"/>
</svg>
