<svg width="30" height="24" viewBox="0 0 30 24" fill="none" xmlns="http://www.w3.org/2000/svg">
<path d="M29.744 2.84123C28.6401 3.32308 27.4638 3.64246 26.2374 3.79754C27.499 3.048 28.462 1.87015 28.9147 0.450461C27.7384 1.14831 26.4396 1.64123 25.0556 1.91631C23.9386 0.732923 22.3468 0 20.6102 0C17.2409 0 14.5284 2.72123 14.5284 6.05723C14.5284 6.53723 14.5692 6.99877 14.6694 7.43815C9.60987 7.19262 5.13294 4.77969 2.12544 1.104C1.60038 2.01046 1.29239 3.048 1.29239 4.16492C1.29239 6.26215 2.37777 8.12123 3.99562 9.19754C3.01786 9.17908 2.05865 8.89662 1.24601 8.45169C1.24601 8.47015 1.24601 8.49415 1.24601 8.51815C1.24601 11.4609 3.35553 13.9052 6.12184 14.4683C5.62646 14.6031 5.08656 14.6677 4.52625 14.6677C4.13663 14.6677 3.74329 14.6455 3.37408 14.5643C4.1626 16.9625 6.40014 18.7255 9.06069 18.7828C6.99014 20.3945 4.36112 21.3655 1.51503 21.3655C1.01595 21.3655 0.537271 21.3434 0.0585938 21.2825C2.7544 23.0123 5.94929 24 9.39465 24C20.5935 24 26.7161 14.7692 26.7161 6.768C26.7161 6.50031 26.7068 6.24185 26.6938 5.98523C27.9016 5.13231 28.9165 4.06708 29.744 2.84123Z" fill="#000B33"/>
</svg>
