<svg width="50" height="419" viewBox="0 0 50 419" fill="none" xmlns="http://www.w3.org/2000/svg">
<circle cx="25" cy="25" r="25" fill="#2B59FF"/>
<path d="M21.7803 20.58V17.4H27.3203V32H23.7603V20.58H21.7803Z" fill="white"/>
<line opacity="0.2" x1="26" y1="57" x2="26" y2="118" stroke="url(#paint0_linear_10_75)" stroke-width="2"/>
<line opacity="0.2" x1="26" y1="180" x2="26" y2="241" stroke="url(#paint1_linear_10_75)" stroke-width="2"/>
<circle cx="25" cy="148" r="25" fill="#2B59FF"/>
<path d="M20.0671 152.26C20.5204 151.9 20.7271 151.733 20.6871 151.76C21.9938 150.68 23.0204 149.793 23.7671 149.1C24.5271 148.407 25.1671 147.68 25.6871 146.92C26.2071 146.16 26.4671 145.42 26.4671 144.7C26.4671 144.153 26.3404 143.727 26.0871 143.42C25.8338 143.113 25.4538 142.96 24.9471 142.96C24.4404 142.96 24.0404 143.153 23.7471 143.54C23.4671 143.913 23.3271 144.447 23.3271 145.14H20.0271C20.0538 144.007 20.2938 143.06 20.7471 142.3C21.2138 141.54 21.8204 140.98 22.5671 140.62C23.3271 140.26 24.1671 140.08 25.0871 140.08C26.6738 140.08 27.8671 140.487 28.6671 141.3C29.4804 142.113 29.8871 143.173 29.8871 144.48C29.8871 145.907 29.4004 147.233 28.4271 148.46C27.4538 149.673 26.2138 150.86 24.7071 152.02H30.1071V154.8H20.0671V152.26Z" fill="white"/>
<line opacity="0.2" x1="26" y1="303" x2="26" y2="364" stroke="url(#paint2_linear_10_75)" stroke-width="2"/>
<circle cx="25" cy="271" r="25" fill="#2B59FF"/>
<path d="M20.4653 267.52C20.5186 266.093 20.9853 264.993 21.8653 264.22C22.7453 263.447 23.9386 263.06 25.4453 263.06C26.4453 263.06 27.2986 263.233 28.0053 263.58C28.7253 263.927 29.2653 264.4 29.6253 265C29.9986 265.6 30.1853 266.273 30.1853 267.02C30.1853 267.9 29.9653 268.62 29.5253 269.18C29.0853 269.727 28.5719 270.1 27.9853 270.3V270.38C28.7453 270.633 29.3453 271.053 29.7853 271.64C30.2253 272.227 30.4453 272.98 30.4453 273.9C30.4453 274.727 30.2519 275.46 29.8653 276.1C29.4919 276.727 28.9386 277.22 28.2053 277.58C27.4853 277.94 26.6253 278.12 25.6253 278.12C24.0253 278.12 22.7453 277.727 21.7853 276.94C20.8386 276.153 20.3386 274.967 20.2853 273.38H23.6053C23.6186 273.967 23.7853 274.433 24.1053 274.78C24.4253 275.113 24.8919 275.28 25.5053 275.28C26.0253 275.28 26.4253 275.133 26.7053 274.84C26.9986 274.533 27.1453 274.133 27.1453 273.64C27.1453 273 26.9386 272.54 26.5253 272.26C26.1253 271.967 25.4786 271.82 24.5853 271.82H23.9453V269.04H24.5853C25.2653 269.04 25.8119 268.927 26.2253 268.7C26.6519 268.46 26.8653 268.04 26.8653 267.44C26.8653 266.96 26.7319 266.587 26.4653 266.32C26.1986 266.053 25.8319 265.92 25.3653 265.92C24.8586 265.92 24.4786 266.073 24.2253 266.38C23.9853 266.687 23.8453 267.067 23.8053 267.52H20.4653Z" fill="white"/>
<circle cx="25" cy="394" r="25" fill="#2B59FF"/>
<path d="M19.2124 398.4V395.64L25.5324 386.6H29.3524V395.44H30.9924V398.4H29.3524V401H25.9324V398.4H19.2124ZM26.1724 390.36L22.8124 395.44H26.1724V390.36Z" fill="white"/>
<defs>
<linearGradient id="paint0_linear_10_75" x1="24.5" y1="57" x2="24.5" y2="118" gradientUnits="userSpaceOnUse">
<stop stop-color="#8C30F5"/>
<stop offset="1" stop-color="#FF4B5C"/>
</linearGradient>
<linearGradient id="paint1_linear_10_75" x1="24.5" y1="180" x2="24.5" y2="241" gradientUnits="userSpaceOnUse">
<stop stop-color="#8C30F5"/>
<stop offset="1" stop-color="#FF4B5C"/>
</linearGradient>
<linearGradient id="paint2_linear_10_75" x1="24.5" y1="303" x2="24.5" y2="364" gradientUnits="userSpaceOnUse">
<stop stop-color="#8C30F5"/>
<stop offset="1" stop-color="#FF4B5C"/>
</linearGradient>
</defs>
</svg>
