<svg width="11" height="8" viewBox="0 0 11 8" fill="none" xmlns="http://www.w3.org/2000/svg">
<path d="M10.3838 0.801698C10.3135 0.736154 10.2299 0.684131 10.1377 0.648629C10.0456 0.613127 9.94676 0.594849 9.84693 0.594849C9.74711 0.594849 9.64827 0.613127 9.55612 0.648629C9.46398 0.684131 9.38034 0.736154 9.31005 0.801698L3.67649 6.01841L1.30965 3.82263C1.23666 3.75743 1.1505 3.70616 1.05609 3.67176C0.961673 3.63735 0.860856 3.62048 0.759391 3.6221C0.657926 3.62372 0.557801 3.64381 0.464731 3.68122C0.371661 3.71863 0.28747 3.77262 0.216965 3.84012C0.14646 3.90761 0.0910214 3.98729 0.0538143 4.0746C0.0166072 4.16191 -0.00163981 4.25514 0.000115634 4.34897C0.00187108 4.44281 0.0235945 4.5354 0.0640453 4.62147C0.104496 4.70753 0.162882 4.78539 0.23587 4.85059L3.13961 7.53587C3.2099 7.60141 3.29354 7.65343 3.38568 7.68894C3.47783 7.72444 3.57667 7.74272 3.67649 7.74272C3.77632 7.74272 3.87516 7.72444 3.9673 7.68894C4.05945 7.65343 4.14309 7.60141 4.21338 7.53587L10.3838 1.82966C10.4606 1.76417 10.5218 1.6847 10.5637 1.59624C10.6056 1.50778 10.6273 1.41225 10.6273 1.31568C10.6273 1.2191 10.6056 1.12358 10.5637 1.03512C10.5218 0.946656 10.4606 0.867181 10.3838 0.801698Z" fill="#00BB98"/>
</svg>
